<?xml version="1.0" standalone="no"?>
<!DOCTYPE svg PUBLIC "-//W3C//DTD SVG 20010904//EN"
 "http://www.w3.org/TR/2001/REC-SVG-20010904/DTD/svg10.dtd">
<svg version="1.0" xmlns="http://www.w3.org/2000/svg"
 width="512.000000pt" height="512.000000pt" viewBox="0 0 512.000000 512.000000"
 preserveAspectRatio="xMidYMid meet">
<metadata>
Created by potrace 1.14, written by Peter Selinger 2001-2017
</metadata>
<g transform="translate(0.000000,512.000000) scale(0.100000,-0.100000)"
fill="#000000" stroke="none">
<path d="M3186 4851 c-4 -6 -12 -8 -19 -6 -7 3 -22 -3 -35 -13 -17 -13 -29
-44 -48 -127 -14 -61 -27 -119 -28 -130 -2 -11 -6 -28 -10 -37 -4 -9 -5 -22
-1 -28 3 -5 1 -10 -4 -10 -6 0 -10 -3 -9 -7 3 -11 -23 -146 -31 -158 -7 -13
-13 -43 -15 -77 0 -16 -4 -28 -7 -28 -3 0 -12 -30 -19 -67 -18 -89 -16 -81
-29 -133 -7 -25 -14 -56 -16 -70 -2 -14 -9 -40 -14 -58 -5 -18 -10 -35 -10
-37 -1 -3 -1 -6 -2 -7 0 -2 -2 -13 -5 -25 -4 -25 -62 -278 -70 -308 -3 -11 -7
-31 -9 -45 -2 -14 -11 -52 -20 -85 -8 -33 -18 -71 -20 -85 -5 -24 -11 -51 -19
-87 -20 -83 -24 -108 -20 -115 3 -4 1 -8 -4 -8 -5 0 -13 -19 -17 -42 -4 -24
-9 -56 -12 -73 -3 -16 -8 -37 -13 -45 -4 -8 -6 -23 -5 -32 2 -10 -1 -18 -7
-18 -6 0 -7 -7 -4 -16 4 -9 2 -22 -2 -28 -5 -6 -10 -18 -10 -26 -1 -18 -6 -40
-26 -105 -9 -27 -16 -52 -16 -55 0 -3 27 -12 60 -19 33 -8 60 -16 60 -20 0 -4
8 -7 18 -8 44 -3 74 -11 84 -21 9 -9 -7 -11 -67 -8 -44 2 -93 -1 -109 -5 -34
-10 -86 -66 -115 -124 -11 -22 -31 -48 -44 -57 -12 -10 -45 -39 -73 -65 -27
-27 -81 -75 -118 -108 -38 -33 -83 -73 -100 -90 -18 -16 -72 -66 -121 -110
-48 -44 -103 -93 -121 -110 -18 -16 -65 -59 -105 -95 -39 -36 -84 -77 -100
-92 -15 -16 -30 -28 -32 -28 -3 0 -22 -17 -44 -37 -21 -21 -79 -74 -128 -118
-110 -99 -208 -189 -256 -235 -21 -19 -59 -54 -86 -77 -148 -129 -143 -122
-144 -188 0 -59 1 -68 17 -130 8 -33 56 -109 89 -140 34 -33 126 -98 180 -128
82 -46 219 -112 228 -109 4 1 7 -3 7 -9 0 -5 4 -7 10 -4 5 3 10 3 10 -2 0 -4
29 -19 65 -32 36 -14 65 -29 65 -35 0 -5 3 -6 7 -3 3 4 17 0 30 -8 13 -9 23
-13 23 -10 0 4 15 -2 33 -11 58 -30 67 -34 82 -34 8 0 15 -4 15 -10 0 -5 6
-10 13 -10 7 0 31 -9 53 -19 48 -23 193 -24 234 -1 14 8 27 15 30 15 16 2 68
40 64 47 -3 4 0 8 5 8 6 0 11 5 11 11 0 5 13 24 30 42 16 18 30 35 30 39 0 4
6 13 13 20 7 7 35 42 62 78 27 36 56 73 64 82 31 33 41 47 41 57 0 5 3 11 8
13 4 2 26 28 49 58 23 30 50 64 60 75 10 11 25 30 33 41 23 33 103 138 114
151 28 30 57 73 54 78 -2 4 5 11 14 16 10 5 32 31 50 57 17 26 34 49 38 52 5
4 109 138 210 270 14 18 33 42 42 54 29 35 33 40 58 76 13 19 29 40 36 45 6 6
24 28 40 50 16 22 33 43 39 47 5 4 6 8 2 8 -4 0 3 11 16 24 13 13 48 56 77 95
29 39 56 71 59 71 8 0 13 57 14 156 1 112 -37 159 -166 206 -82 30 -55 35 35
7 40 -13 82 -24 92 -26 11 -2 27 -10 36 -18 22 -20 38 -19 44 3 6 21 37 152
41 172 2 8 4 15 6 15 1 0 3 9 4 20 2 11 14 62 28 113 14 50 23 92 21 92 -3 0
0 9 5 19 6 10 13 34 16 52 2 19 12 59 20 89 20 70 26 97 32 138 3 17 8 32 12
32 4 0 7 8 8 18 2 26 11 70 33 152 11 41 23 88 26 104 3 16 8 34 11 39 3 6 8
22 10 36 7 41 10 55 16 71 4 8 8 26 11 40 2 14 12 54 22 90 9 36 18 72 19 80
1 8 5 22 8 30 8 22 48 192 50 213 1 9 4 17 7 17 3 0 7 8 8 18 2 20 10 56 12
60 3 3 1 -4 28 117 13 55 26 107 31 115 4 8 7 23 5 33 -1 9 2 17 7 17 5 0 8 3
7 8 -1 4 1 21 5 37 4 17 9 39 11 51 2 11 11 44 20 72 8 29 12 52 8 52 -3 0 -1
5 5 11 14 14 5 88 -14 117 -8 13 -30 30 -48 38 -18 7 -35 18 -37 23 -1 5 -34
12 -73 15 -38 3 -81 8 -95 10 -14 2 -56 7 -95 11 -123 11 -254 24 -305 31 -19
3 -57 7 -85 9 -27 2 -50 4 -50 5 0 1 -20 3 -45 5 -25 1 -68 6 -97 9 -31 5 -54
3 -57 -3z m-827 -2857 c18 -9 31 -18 29 -20 -7 -6 -78 19 -78 28 0 12 13 10
49 -8z m687 -271 c-2 -3 -23 2 -47 10 -23 8 -36 16 -28 19 14 5 82 -22 75 -29z"/>
<path d="M1270 4316 c-3 -3 -29 -6 -58 -7 -28 -2 -52 -6 -52 -11 0 -4 -3 -7
-8 -5 -12 3 -92 -35 -92 -45 0 -4 -5 -8 -12 -8 -21 0 -115 -111 -147 -174 -66
-130 -74 -301 -21 -431 10 -25 23 -58 25 -65 4 -17 60 -116 71 -128 8 -7 14
-17 14 -22 0 -9 51 -88 77 -120 6 -8 29 -38 50 -66 88 -119 257 -311 448 -512
39 -40 74 -80 78 -88 4 -8 12 -14 16 -14 10 0 55 44 171 170 139 151 141 152
195 216 28 32 59 68 70 80 12 12 32 37 45 55 14 18 36 47 50 63 74 89 176 243
212 321 13 28 25 52 28 55 6 6 12 30 13 48 0 6 4 12 8 12 4 0 10 17 14 38 4
20 9 48 12 62 10 49 9 166 -3 211 -32 123 -133 266 -219 309 -17 8 -32 18 -35
21 -13 15 -72 26 -135 27 -102 0 -178 -43 -312 -175 -57 -57 -106 -103 -109
-103 -3 0 -45 41 -92 90 -48 50 -90 90 -94 90 -4 0 -19 11 -34 25 -15 14 -32
25 -38 25 -7 0 -18 6 -25 13 -6 6 -15 12 -19 13 -4 0 -20 6 -35 12 -16 7 -32
10 -37 7 -5 -3 -10 0 -12 6 -2 5 -6 8 -8 5z"/>
</g>
</svg>
